
<svg width="800" height="600" viewBox="0 0 800 600" fill="none" xmlns="http://www.w3.org/2000/svg">
  <rect width="800" height="600" rx="10" fill="#1E1E2E"/>
  <path d="M400 150C323.7 150 261.5 212.2 261.5 288.5C261.5 364.8 323.7 427 400 427C476.3 427 538.5 364.8 538.5 288.5C538.5 212.2 476.3 150 400 150Z" fill="#6366F1" fillOpacity="0.2"/>
  <path d="M400 200C351.4 200 312 239.4 312 288C312 336.6 351.4 376 400 376C448.6 376 488 336.6 488 288C488 239.4 448.6 200 400 200Z" stroke="#6366F1" strokeWidth="4" strokeLinecap="round" strokeLinejoin="round"/>
  <path d="M400 250C379.1 250 362 267.1 362 288C362 308.9 379.1 326 400 326C420.9 326 438 308.9 438 288C438 267.1 420.9 250 400 250Z" fill="#6366F1"/>
  <path d="M289 360L230 460" stroke="#6366F1" strokeWidth="4" strokeLinecap="round"/>
  <path d="M511 360L570 460" stroke="#6366F1" strokeWidth="4" strokeLinecap="round"/>
  <path d="M400 430V490" stroke="#6366F1" strokeWidth="4" strokeLinecap="round"/>
  <path d="M320 310L260 260" stroke="#6366F1" strokeWidth="4" strokeLinecap="round"/>
  <path d="M480 310L540 260" stroke="#6366F1" strokeWidth="4" strokeLinecap="round"/>
  <path d="M350 400L300 440" stroke="#6366F1" strokeWidth="4" strokeLinecap="round"/>
  <path d="M450 400L500 440" stroke="#6366F1" strokeWidth="4" strokeLinecap="round"/>
  <circle cx="230" cy="460" r="10" fill="#8B5CF6"/>
  <circle cx="260" cy="260" r="10" fill="#8B5CF6"/>
  <circle cx="300" cy="440" r="10" fill="#8B5CF6"/>
  <circle cx="400" cy="490" r="10" fill="#8B5CF6"/>
  <circle cx="500" cy="440" r="10" fill="#8B5CF6"/>
  <circle cx="540" cy="260" r="10" fill="#8B5CF6"/>
  <circle cx="570" cy="460" r="10" fill="#8B5CF6"/>
</svg>
