
<svg width="800" height="600" viewBox="0 0 800 600" fill="none" xmlns="http://www.w3.org/2000/svg">
  <rect width="800" height="600" rx="10" fill="#1E1E2E"/>
  <rect x="100" y="100" width="600" height="400" rx="10" fill="#6366F1" fillOpacity="0.1"/>
  <circle cx="200" cy="200" r="50" fill="#6366F1" fillOpacity="0.2" stroke="#6366F1" strokeWidth="4"/>
  <circle cx="400" cy="200" r="50" fill="#6366F1" fillOpacity="0.2" stroke="#6366F1" strokeWidth="4"/>
  <circle cx="600" cy="200" r="50" fill="#6366F1" fillOpacity="0.2" stroke="#6366F1" strokeWidth="4"/>
  <circle cx="200" cy="400" r="50" fill="#6366F1" fillOpacity="0.2" stroke="#6366F1" strokeWidth="4"/>
  <circle cx="400" cy="400" r="50" fill="#6366F1" fillOpacity="0.2" stroke="#6366F1" strokeWidth="4"/>
  <circle cx="600" cy="400" r="50" fill="#6366F1" fillOpacity="0.2" stroke="#6366F1" strokeWidth="4"/>
  
  <path d="M250 200L350 200" stroke="#8B5CF6" strokeWidth="4" strokeLinecap="round" strokeDasharray="8 8"/>
  <path d="M450 200L550 200" stroke="#8B5CF6" strokeWidth="4" strokeLinecap="round" strokeDasharray="8 8"/>
  <path d="M200 250L200 350" stroke="#8B5CF6" strokeWidth="4" strokeLinecap="round" strokeDasharray="8 8"/>
  <path d="M400 250L400 350" stroke="#8B5CF6" strokeWidth="4" strokeLinecap="round" strokeDasharray="8 8"/>
  <path d="M600 250L600 350" stroke="#8B5CF6" strokeWidth="4" strokeLinecap="round" strokeDasharray="8 8"/>
  <path d="M250 400L350 400" stroke="#8B5CF6" strokeWidth="4" strokeLinecap="round" strokeDasharray="8 8"/>
  <path d="M450 400L550 400" stroke="#8B5CF6" strokeWidth="4" strokeLinecap="round" strokeDasharray="8 8"/>
  
  <text x="200" y="204" text-anchor="middle" fill="white" font-family="Arial" font-size="16" font-weight="bold">1</text>
  <text x="400" y="204" text-anchor="middle" fill="white" font-family="Arial" font-size="16" font-weight="bold">2</text>
  <text x="600" y="204" text-anchor="middle" fill="white" font-family="Arial" font-size="16" font-weight="bold">3</text>
  <text x="200" y="404" text-anchor="middle" fill="white" font-family="Arial" font-size="16" font-weight="bold">4</text>
  <text x="400" y="404" text-anchor="middle" fill="white" font-family="Arial" font-size="16" font-weight="bold">5</text>
  <text x="600" y="404" text-anchor="middle" fill="white" font-family="Arial" font-size="16" font-weight="bold">6</text>
</svg>
